<svg width="159" height="175" viewBox="0 0 159 175" fill="none" xmlns="http://www.w3.org/2000/svg">
<g clip-path="url(#clip0_2_2)">
<rect x="59.5" y="16.5" width="39" height="39" fill="#454545" stroke="black"/>
<rect x="44.707" y="61.8297" width="49" height="49" transform="rotate(-45.79 44.707 61.8297)" fill="#454545" stroke="black"/>
<rect x="44.707" y="51.8297" width="49" height="49" transform="rotate(-45.79 44.707 51.8297)" fill="#FF2121" stroke="black"/>
<rect x="44.707" y="40.8276" width="49" height="49" transform="rotate(-45.7866 44.707 40.8276)" fill="white" stroke="black"/>
<path d="M9.104 126.624V105.632H12.88V116.544L23.12 105.632H27.92L18.928 115.424L27.056 126.656V126.624H30.16V128H23.568L16.144 118.208L12.88 121.728V128H6V126.624H9.104ZM31.6353 126.624V105.632H35.4113V126.624H38.5153V128H28.5312V126.624H31.6353ZM57.828 126.624V128H38.5V126.624H46.276V109.088H39.492V105.632H56.836V109.088H50.052V126.624H57.828ZM81.3645 126.624V128H57.8125V126.624H64.9165C63.2312 125.621 61.8978 124.256 60.9165 122.528C59.9565 120.8 59.4765 118.848 59.4765 116.672C59.4765 113.387 60.6072 110.635 62.8685 108.416C65.1512 106.197 68.0205 105.088 71.4765 105.088C74.9538 105.088 77.8552 106.368 80.1805 108.928L77.7805 111.552C76.7138 110.528 75.7005 109.813 74.7405 109.408C73.8018 109.003 72.6925 108.8 71.4125 108.8C69.1512 108.8 67.2525 109.536 65.7165 111.008C64.1805 112.459 63.4125 114.325 63.4125 116.608C63.4125 118.869 64.1698 120.768 65.6845 122.304C67.2205 123.819 69.0338 124.576 71.1245 124.576C72.4258 124.576 73.5458 124.363 74.4845 123.936C75.4232 123.488 76.4045 122.784 77.4285 121.824L79.8605 124.32C78.9218 125.344 78.0258 126.112 77.1725 126.624H81.3645ZM106.239 126.624V128H99.359V118.848H88.255V128H84.479V105.632H88.255V115.328H99.359V105.632H103.135V126.624H106.239ZM84.479 126.624H81.375V128H84.479V126.624ZM109.354 126.624V105.632H125.066V109.184H113.13V115.104H123.85V118.464H113.13V124.448H125.45V126.624H128.554V128H106.25V126.624H109.354ZM130.292 126.624V105.632H134.068L147.06 122.336V105.632H150.836V126.624H153.94V128H146.74L134.068 111.68V128H127.188V126.624H130.292Z" fill="#454545"/>
<path d="M51.56 163.4V140.36H60.52C63.72 140.36 65.32 141.96 65.32 145.16V152.2C65.32 155.4 63.72 157 60.52 157H54.12V163.4H51.56ZM54.12 154.76H60.52C62.0133 154.76 62.76 154.013 62.76 152.52V144.84C62.76 143.347 62.0133 142.6 60.52 142.6H54.12V154.76ZM70.057 152.456V133.32H72.617V152.712C72.617 154.184 73.3637 154.963 74.857 155.048V157.256C71.657 157.256 70.057 155.656 70.057 152.456ZM78.2415 152.2V145.16C78.2415 141.96 79.8415 140.36 83.0415 140.36H87.5215C90.7215 140.36 92.3215 141.96 92.3215 145.16V152.2C92.3215 155.4 90.7215 157 87.5215 157H83.0415C79.8415 157 78.2415 155.4 78.2415 152.2ZM80.8015 152.52C80.8015 154.013 81.5482 154.76 83.0415 154.76H87.5215C89.0148 154.76 89.7615 154.013 89.7615 152.52V144.84C89.7615 143.347 89.0148 142.6 87.5215 142.6H83.0415C81.5482 142.6 80.8015 143.347 80.8015 144.84V152.52ZM97.057 152.2V134.92H99.617V140.36H105.697V142.6H99.617V152.52C99.617 154.013 100.364 154.76 101.857 154.76H106.017V156.04L104.737 157H101.857C98.657 157 97.057 155.4 97.057 152.2Z" fill="#454545"/>
<rect x="51.707" y="40.6618" width="39" height="39" transform="rotate(-45.79 51.707 40.6618)" fill="#454545" stroke="black"/>
<circle cx="79" cy="40" r="14.5" fill="white" stroke="black"/>
<circle cx="79" cy="40" r="4.5" fill="#FF2121" stroke="black"/>
</g>
<defs>
<clipPath id="clip0_2_2">
<rect width="159" height="175" fill="white"/>
</clipPath>
</defs>
</svg>
